<?xml version="1.0" encoding="utf-8"?>
<!-- Generator: Adobe Illustrator 22.0.1, SVG Export Plug-In . SVG Version: 6.00 Build 0)  -->
<svg version="1.1" id="Layer_1" xmlns="http://www.w3.org/2000/svg" xmlns:xlink="http://www.w3.org/1999/xlink" x="0px" y="0px"
	 viewBox="0 0 617 616.1" style="enable-background:new 0 0 617 616.1;" xml:space="preserve">
<style type="text/css">
	.st0{fill:#F29100;}
	.st1{fill:#93C01F;}
	.st2{fill:#39A935;}
	.st3{fill:#575756;}
	.st4{fill:#FFFFFF;}
</style>
<title>trafficsense_iconAsset 11</title>
<g id="Layer_2_1_">
	<g id="Layer_1-2">
		<rect y="0.6" class="st0" width="298.1" height="298.1"/>
		<rect x="318.2" y="0.6" class="st1" width="298.1" height="298.1"/>
		<rect y="318" class="st2" width="298.1" height="298.1"/>
		<rect x="318.2" y="318" class="st3" width="298.1" height="298.1"/>
		<g id="metro">
			<path class="st4" d="M230.2,37.9h-164c-11.7-0.3-21.5,9-21.8,20.7V199c0.4,11.7,10.1,20.8,21.8,20.6h164
				c11.7,0.3,21.4-8.9,21.8-20.6V58.6C251.7,46.9,241.9,37.7,230.2,37.9z M78.8,199.7c-6.1-0.3-10.9-5.6-10.5-11.7
				c0.3-6.1,5.6-10.9,11.7-10.5c5.9,0.3,10.5,5.2,10.5,11.1C90.3,194.9,85.1,199.8,78.8,199.7z M217.6,199.7
				c-6.1-0.3-10.9-5.6-10.5-11.7c0.3-6.1,5.6-10.9,11.7-10.5c5.9,0.3,10.6,5.2,10.6,11.1C229.1,194.9,223.9,199.8,217.6,199.7z
				 M234.6,116.4c-0.1,3.6-3.1,6.4-6.7,6.3H68.5c-3.6,0.1-6.6-2.7-6.7-6.3V61.7c0.1-3.6,3.1-6.4,6.7-6.3H228
				c3.6-0.1,6.6,2.8,6.7,6.3L234.6,116.4L234.6,116.4z"/>
			<path class="st4" d="M223.1,249.1L223.1,249.1l-149.8-0.6c-5.5,0.4-10.2-3.7-10.6-9.2c-0.4-5.5,3.7-10.2,9.2-10.6
				c0.5,0,0.9,0,1.4,0l0,0l149.8,0.6c5.5-0.4,10.2,3.7,10.6,9.2c0.4,5.5-3.7,10.2-9.2,10.6C224,249.2,223.5,249.2,223.1,249.1
				L223.1,249.1z"/>
		</g>
		<g id="jalat">
			<path class="st4" d="M92.4,492.3c5.3-6.3,12-15.6,24.7-23.9c6.3-4.1,54-28.3,50.5-60.3c-1.7-6-5.1-11.5-9.8-15.6
				c-5.7-4.1-15-7-29.5-7.4c-14.9-0.1-29.2,5.8-39.7,16.3c-8.7,9.1-15.5,28.2-23.4,42.8c-4.2,7.7-9,15-14.2,22.1
				c0,0,18.6,10.7,23.1,13.7C79.1,483.5,92.4,492.3,92.4,492.3z"/>
			<path class="st4" d="M40.7,478.5c-11,13.6-16.7,33.1-9.8,41.7c3.1,3.7,7,6.6,11.4,8.6c3.9,1.5,8.1,1.9,12.2,1.3
				c8.8-1.4,20-11.3,28.6-25.7"/>
			<path class="st4" d="M169.4,494.5c5.5-6.2,13.9-14.5,19.5-27.4c2.8-6.4,16.4-53.5,52.4-59.1c6.8-0.3,13.6,1.1,19.7,4.1
				c6,3.7,11.7,10.8,16,22.9c4.1,13.1,1.4,27.4-7.2,38.2c-7.6,9.8-26.7,20.8-40.6,31.4c-7.1,5.6-13.9,11.6-20.4,17.9
				c0,0-16.7-12.9-21.3-15.9C182.7,503.4,169.4,494.5,169.4,494.5z"/>
			<path class="st4" d="M196.6,534.6c-11.9,13-31.6,22.9-43,19.5c-4.6-1.5-8.9-4-12.4-7.3c-2.6-2.8-4.2-6.3-4.7-10
				c-0.9-7.9,6.9-20,20.4-31.2"/>
		</g>
		<path id="auto" class="st4" d="M585.7,433.6l-3.4-5.5c-2.8-3.7-7.7-5.1-12-3.2l-9.3,3.8c0-0.3-0.2-0.7-0.3-1
			c-5.3-17.6-14.4-44.7-20.8-47.7c-8.9-4.1-66.6-5.5-74.4-5.7h-0.2c-7.8,0.2-65.6,1.6-74.4,5.7c-6.4,3-15.5,30.1-20.8,47.7l-0.3,1
			l-9.3-3.8c-4.3-1.9-9.3-0.5-12,3.2l-3.4,5.5c-1.8,3.3-0.7,7.4,2.6,9.2c0.4,0.3,0.9,0.5,1.4,0.6l9.7,4l-0.4,0.3
			c-0.8,0.6-1.6,1.3-2.2,2.2c-2.8,3.9-4.2,11.7-4.5,15.9c-0.4,6.8-0.5,43-0.5,43s0.7,8.5,1,9.6c0.5,2.7,1.9,5.3,4,7.1
			c3,2.4,11.4,4.1,13.2,4.4l2.5,0.5h1.3V548c0.4,4.8,4.6,8.4,9.4,8.1h16.3c4.8,0.3,9-3.3,9.4-8.1v-14.9l12.4,0.8
			c16.5,1,32.1,1.9,37.1,1.9c3.8,0,6.1,0,7.4,0h0.2c1.3,0,3.6,0,7.4,0c5.1,0,20.6-0.9,37.1-1.9l12.4-0.8V548
			c0.4,4.8,4.6,8.4,9.4,8.1H548c4.8,0.3,9-3.3,9.4-8.1v-17.3h1.3l2.5-0.5c1.7-0.3,10.2-2,13.2-4.4c2.1-1.9,3.4-4.4,4-7.1
			c0.4-1.2,1-9.6,1-9.6s0-36.2-0.5-43c-0.2-4.1-1.7-11.9-4.4-15.9c-0.6-0.8-1.4-1.5-2.2-2.2l-0.4-0.3l9.7-4
			C586.1,441.6,588.1,437.2,585.7,433.6z M416.8,482.8c-0.2,6.4-4.5,7.3-19.2,5.3s-26-10.2-25.7-16.4c0.2-4.6,12.5-5.7,27.4-5.3
			c11.7,0.3,16.5-0.2,17.6,7.6C417.1,477,417,479.9,416.8,482.8L416.8,482.8z M465.4,446.4c-33.8-0.2-85.2-3.8-85.2-3.8
			c4.7-14.5,15.8-49.5,21.4-51.9c7.4-3.2,53.5-4.5,63.8-4.7c10.2,0.2,56.4,1.5,63.6,4.7c5.6,2.5,16.8,37.5,21.4,51.9
			C550.5,442.7,499.2,446.3,465.4,446.4L465.4,446.4z M533.1,488.2c-14.8,2-19,1-19.2-5.3c-0.2-2.9-0.2-5.8,0-8.7
			c1.1-7.9,5.9-7.4,17.6-7.6c14.8-0.4,27.2,0.7,27.4,5.3C559.1,478.1,548,486.2,533.1,488.2L533.1,488.2z"/>
		<g id="pyörä">
			<polygon class="st4" points="477.7,197 515.4,106.1 505.6,102.9 468,193.8 			"/>
			<path class="st4" d="M420,100.5l9.8-8c-4-1.8-7.5-4.7-9.8-8.5c-1-1.7-1-3.9-0.2-5.7c0.7-0.8,2.5-1.1,5.4-1c9.5,0.4,12.3,3,21,7.6
				l5.6-10.4c-10.2-5.6-14.8-8.7-26.1-9.1c-4.3-0.2-10.5,0.2-14.7,5.1c-4.1,5.4-4.8,12.7-1.6,18.7C412,93.8,415.6,97.7,420,100.5z"
				/>
			<polygon class="st4" points="388.5,186.2 429.9,92.5 418.3,91.3 377.7,181.4 			"/>
			<path class="st4" d="M379.3,232c1.1,0,2.3,0,3.4,0.2c27.2,0.3,49.5-21.5,49.8-48.7c0.2-13.7-7.6-28.6-17.6-38l-5.9,10.2
				c7.6,7.2,11.9,17.2,11.7,27.7c-0.2,20.7-17.2,37.3-37.9,37c-20.7-0.2-37.3-17.2-37-37.9c0.2-20.6,17.1-37.2,37.7-37
				c1.4,0,2.7,0.1,4,0.3l5.1-10.9c-2.9-0.6-5.9-1-8.9-1.2c-27.2-0.2-49.4,21.7-49.6,48.9C334.1,208.3,353.7,229.9,379.3,232z"/>
			<circle class="st4" cx="383.2" cy="182.9" r="5.5"/>
			<path class="st4" d="M375,190.9c-4.4-4.5-4.3-11.7,0.2-16.1c2.2-2.1,5.1-3.3,8.1-3.2c6.3,0.1,11.3,5.3,11.2,11.6
				c0,3-1.3,5.9-3.4,8c-2.2,2.1-5.1,3.3-8.1,3.3h-0.8C379.5,194.1,376.9,192.9,375,190.9z M383.2,182.5c-0.2,0-0.4,0.2-0.4,0.4
				c0,0.1,0,0.2,0,0.3c0.1,0,0.2,0,0.3,0c0.1,0,0.2,0,0.3,0c0.1-0.1,0.1-0.2,0.1-0.3s0-0.2,0-0.3
				C383.4,182.6,383.3,182.6,383.2,182.5L383.2,182.5z"/>
			<circle class="st4" cx="550.5" cy="184.3" r="5.5"/>
			<path class="st4" d="M542.4,192.2c-4.4-4.5-4.3-11.7,0.2-16.1l0,0c2.1-2.1,5.1-3.3,8.1-3.2c6.3,0.1,11.3,5.2,11.3,11.5
				c0,0,0,0,0,0.1c-0.1,6.3-5.2,11.3-11.5,11.3l0,0h-0.8C546.8,195.4,544.3,194.2,542.4,192.2z M550.5,183.8c-0.2,0-0.4,0.1-0.4,0.3
				v0.1c0,0.1,0,0.2,0,0.3c0.1,0.1,0.2,0.1,0.3,0.1s0.2,0,0.3-0.1c0-0.1,0-0.2,0-0.3s0-0.2,0-0.3c-0.1,0-0.2,0-0.3,0L550.5,183.8z"
				/>
		</g>
		<path class="st4" d="M592.3,158.5c-6.9-11.1-17.8-19-30.5-22c-13.3-3.1-29.6,1.2-40.9,8.9l8.7,8c17.1-11.6,40.4-7.2,52.1,9.9
			s7.2,40.4-9.9,52.1c-17.1,11.6-40.4,7.2-52.1-9.9c-1.9-2.9-3.5-6-4.6-9.3l-11.7,2.1c7.8,26.1,35.2,40.9,61.2,33.1
			c15.7-4.7,28.1-16.9,33-32.5c0.3-1.1,0.6-2.2,0.9-3.3C601.4,182.9,599.2,169.5,592.3,158.5z"/>
		<path class="st4" d="M515.8,167.5l-9.2-7.8c-1.4,2.7-2.6,5.4-3.5,8.3c-1.2,4.3-1.9,8.8-2,13.2l11.9-1.5c0.2-2.8,0.6-5.7,1.4-8.4
			C514.8,170,515.3,168.7,515.8,167.5z"/>
		<path class="st4" d="M472.1,187.4l-40.7-50.1l63.6,2.8l37.5,39.6l-19.4,2.5c-0.2,4,0.2,8.1,1.3,12l43.1-5.6l-57.1-60.4l-95.3-4.2
			l61.9,76.1l35.6-4.5c-0.9-3.9-1.4-7.9-1.3-12L472.1,187.4z"/>
		<path class="st4" d="M513.1,182.2l-11.8,1.5c-0.1,4,0.4,8,1.3,12l11.8-1.5C513.3,190.3,512.9,186.2,513.1,182.2z"/>
		<path class="st4" d="M500.3,102.6c-1.3-0.5-2.5-0.9-3.9-1.4c-3.3-1.3-8.9-2.5-11.5-5.1c-5.1-4.8,13.1-4.7,15.3-4.5
			c6.8,0.3,13.5,1.4,20.1,3.2c2.5,0.6,4.8,1.9,6.5,3.8c1.8,2,1.6,5.1-0.3,7c-1.3,0.8-2.8,1.2-4.4,1.1c-4,0-8.1-0.4-12-1.3
			c-0.7,0-1.3-0.3-2-0.4C505.5,104.4,502.8,103.6,500.3,102.6z"/>
	</g>
</g>
</svg>
